# xmcd
#
# Track frame offsets: 
#        150
#        19121
#        28934
#        44943
#        58123
#        75229
#        94578
#        106279
#        130741
#        145581
#        165663
#        191260
#        211913
#        233153
#        264851
#
# Disc length: 3712 seconds
#
# Revision: 0
# Processed by: cddbd v1.4PL0 Copyright (c) Steve Scherf et al.
# Submitted via: ExactAudioCopy v0.90b4
#
DISCID=c00e7e0f
DTITLE=Taylor, James - Live
DYEAR=1900
DGENRE=Blues
TTITLE0=Sweet Baby James
TTITLE1=Traffic Jam
TTITLE2=Handy man
TTITLE3=Your smiling face
TTITLE4=Secret o' life
TTITLE5=Shed a little light
TTITLE6=Everybody has the blues
TTITLE7=Steamroller blues
TTITLE8=Mexico
TTITLE9=Millworker
TTITLE10=Country road
TTITLE11=Fire and rain
TTITLE12=Shower the people
TTITLE13=How sweet it is
TTITLE14=New hymn
EXTD=
EXTT0=
EXTT1=
EXTT2=
EXTT3=
EXTT4=
EXTT5=
EXTT6=
EXTT7=
EXTT8=
EXTT9=
EXTT10=
EXTT11=
EXTT12=
EXTT13=
EXTT14=
PLAYORDER=
